<svg viewBox="0 0 293 247" fill="none" xmlns="http://www.w3.org/2000/svg">
<g id="addressSVG" clip-path="url(#clip0)">
<g id="man">
<path id="Vector" d="M43.4483 236.603L49.1326 238.19L57.9679 217.056L49.5786 214.714L43.4483 236.603Z" fill="#FFB8B8"/>
<path id="Vector_2" d="M111.256 241.047L117.158 241.047L119.965 218.318L111.254 218.319L111.256 241.047Z" fill="#FFB8B8"/>
<path id="Vector_3" d="M67.3939 146.686L53.8082 179.912L109.283 192.354L109.991 173.765L84.8007 146.979L67.3939 146.686Z" fill="#B3B3B3"/>
<path id="Vector_4" d="M97.4926 94.9268C103.638 91.5732 105.896 83.8811 102.537 77.7462C99.1777 71.6113 91.4728 69.3566 85.3276 72.7102C79.1823 76.0639 76.9239 83.7559 80.2832 89.8909C83.6424 96.0258 91.3474 98.2805 97.4926 94.9268Z" fill="#FFB8B8"/>
<path id="Vector_5" d="M100.471 144.848L75.3608 134.586L73.1251 119.869C72.4668 115.568 73.4949 111.178 75.9956 107.614C78.4963 104.05 82.2772 101.585 86.5517 100.733L89.8731 100.067C92.6015 99.5216 95.4221 99.6494 98.0899 100.439C100.758 101.229 103.192 102.657 105.181 104.6C107.13 106.459 108.587 108.77 109.423 111.328C110.258 113.886 110.446 116.611 109.97 119.259C109.595 121.529 108.673 123.673 107.284 125.508C99.3956 135.806 100.408 144.367 100.419 144.452L100.471 144.848Z" fill="#6C63FF"/>
<path id="Vector_6" d="M110.696 183.228L98.1113 163.248L102.075 126.903L96.5996 99.7207L96.8907 99.728C100.075 99.8064 103.108 101.105 105.36 103.354C107.612 105.603 108.911 108.631 108.988 111.81L114.315 138.447L110.696 183.228Z" fill="#2F2E41"/>
<path id="Vector_7" d="M110.983 236.751C110.453 236.75 109.939 236.567 109.528 236.231C109.118 235.895 108.837 235.428 108.732 234.909L103.219 207.54C102.212 202.525 100.316 197.731 97.6196 193.382L82.063 168.26C81.9856 168.135 81.8752 168.033 81.7438 167.967C81.6125 167.901 81.4654 167.872 81.3186 167.883C81.1719 167.895 81.0312 167.947 80.9121 168.033C80.793 168.12 80.7001 168.237 80.6435 168.373L55.0671 229.711C54.8615 230.201 54.492 230.605 54.0216 230.854C53.5512 231.103 53.0089 231.182 52.487 231.077L45.6545 229.686C45.0692 229.569 44.5527 229.229 44.2153 228.738C43.8778 228.246 43.7462 227.642 43.8484 227.055L49.4221 194.262C50.5591 187.578 52.4964 181.054 55.1924 174.832L74.0688 131.279L101.926 140.413L103.764 159.886L116.635 191.001C117.525 193.149 118.056 195.429 118.209 197.749L120.587 233.709C120.624 234.309 120.425 234.9 120.031 235.355C119.638 235.81 119.082 236.094 118.482 236.146L111.172 236.743C111.109 236.748 111.046 236.751 110.983 236.751Z" fill="#2F2E41"/>
<path id="Vector_8" d="M60.1653 192.138L51.3339 183.769L68.024 119.518C69.0829 115.478 71.0683 111.74 73.8232 108.598C76.5781 105.456 80.0272 102.996 83.8979 101.414L84.2256 101.281L83.3338 140.385L60.1653 192.138Z" fill="#2F2E41"/>
<path id="Vector_9" d="M88.455 96.433C85.3222 93.7258 84.3694 88.6757 86.289 84.9526C88.2086 81.2295 92.7986 79.2253 96.7235 80.3963C100.42 81.4993 104.622 77.8202 104.172 73.8752C103.722 69.9301 98.806 67.3603 95.4591 69.3202C92.9244 68.3047 90.1498 68.0417 87.469 68.563C84.7881 69.0842 82.3152 70.3675 80.3476 72.2585C76.4154 76.1042 74.9237 82.391 76.6889 87.6774C78.4542 92.9639 83.3817 96.9662 88.455 96.433Z" fill="#2F2E41"/>
<path id="Vector_10" d="M77.3619 199.323C77.2071 199.382 77.046 199.423 76.8818 199.446L56.7193 202.256C56.2315 202.326 55.7345 202.228 55.31 201.978C54.8855 201.728 54.5588 201.341 54.3837 200.882L37.0285 155.798C36.9161 155.506 36.8681 155.193 36.8877 154.881C36.9072 154.569 36.994 154.265 37.142 153.989C37.29 153.714 37.4958 153.473 37.7453 153.284C37.9948 153.095 38.2822 152.962 38.5879 152.894L38.588 152.894L57.5488 148.67C57.6951 148.637 57.8366 148.585 57.9696 148.516L76.4117 138.89C76.5541 138.816 76.7045 138.757 76.86 138.716L97.1556 133.314C97.6754 133.175 98.2284 133.233 98.7078 133.477C99.1872 133.721 99.559 134.134 99.7511 134.636L114.884 173.946C115.017 174.289 115.06 174.659 115.01 175.023C114.96 175.387 114.818 175.732 114.598 176.026L109.364 183.042C109.118 183.373 108.783 183.626 108.398 183.774L96.9605 188.162C96.8786 188.193 96.7991 188.231 96.7229 188.275L77.6643 199.179C77.5673 199.235 77.4662 199.283 77.3619 199.323Z" fill="white"/>
<path id="Vector_11" d="M86.7426 139.324L84.1653 140.011L77.3355 141.829L77.3233 141.832L67.9728 146.713L64.5027 148.524L64.5011 148.525L59.2894 151.245L59.1465 151.277L53.7324 152.483L51.1158 153.067L40.4435 155.444L57.1976 198.967L68.1953 197.435L70.8918 197.058L76.6393 196.256L76.706 196.248L95.1747 185.68L106.412 181.369L111.542 174.491L96.9578 136.606L86.7426 139.324Z" fill="#E6E6E6"/>
<path id="Vector_12" d="M99.3605 142.848L43.8003 164.164L44.7518 166.636L100.312 145.319L99.3605 142.848Z" fill="white"/>
<path id="Vector_13" d="M102.532 151.087L46.9719 172.403L47.9234 174.875L103.484 153.558L102.532 151.087Z" fill="white"/>
<path id="Vector_14" d="M108.939 167.729L53.3784 189.045L54.3299 191.517L109.89 170.201L108.939 167.729Z" fill="white"/>
<path id="Vector_15" d="M86.7424 139.324L103.376 182.534L100.901 183.484L84.1651 140.011L86.7424 139.324Z" fill="white"/>
<path id="Vector_16" d="M67.9728 146.713L64.5573 156.201L63.373 159.492L60.6103 167.171L60.0184 168.812L59.426 170.462L58.6459 172.627L53.0466 188.184L51.5909 184.402L56.1564 171.716L57.1892 168.844L57.3407 168.425L58.5622 165.029L60.1034 160.746L61.2877 157.455L64.5011 148.525L64.5025 148.525L67.9728 146.713Z" fill="white"/>
<path id="Vector_17" opacity="0.1" d="M95.5773 185.526L95.1745 185.68L76.706 196.248L76.6391 196.256L59.1463 151.277L59.2894 151.245L64.5011 148.525L64.5025 148.525L67.9728 146.713L77.3235 141.832L77.3355 141.829L95.5773 185.526Z" fill="black"/>
<path id="Vector_18" d="M77.4451 199.539C77.2738 199.605 77.0956 199.651 76.9139 199.676L56.7513 202.486C56.2116 202.563 55.6616 202.454 55.1919 202.178C54.7222 201.901 54.3606 201.474 54.1668 200.965L36.8116 155.881C36.6873 155.558 36.6341 155.212 36.6558 154.867C36.6775 154.521 36.7735 154.185 36.9373 153.88C37.1011 153.575 37.3288 153.309 37.6049 153.099C37.881 152.89 38.199 152.743 38.5373 152.667L57.4981 148.443C57.6246 148.415 57.7469 148.37 57.862 148.31L76.304 138.684C76.4616 138.602 76.6279 138.537 76.7999 138.492L97.0958 133.09C97.671 132.936 98.283 133 98.8135 133.27C99.344 133.541 99.7553 133.997 99.968 134.553L115.101 173.863C115.248 174.242 115.296 174.652 115.24 175.055C115.185 175.458 115.028 175.84 114.784 176.165L109.55 183.181C109.278 183.546 108.907 183.827 108.481 183.99L97.0439 188.378C96.973 188.405 96.9042 188.438 96.8383 188.476L77.7798 199.38C77.6725 199.442 77.5605 199.495 77.4451 199.539ZM38.5305 153.636C38.1637 153.777 37.8679 154.058 37.7083 154.416C37.5486 154.775 37.5381 155.182 37.679 155.548L55.0342 200.632C55.1533 200.945 55.3755 201.208 55.6643 201.378C55.953 201.548 56.2911 201.614 56.6229 201.567L76.7855 198.757C76.9729 198.731 77.1536 198.669 77.3179 198.575L96.3764 187.671C96.4836 187.609 96.5953 187.557 96.7105 187.512L108.148 183.124C108.41 183.024 108.638 182.851 108.805 182.627L114.038 175.611C114.188 175.411 114.285 175.176 114.319 174.929C114.353 174.681 114.324 174.429 114.233 174.196L99.1006 134.886C98.9699 134.544 98.717 134.263 98.391 134.097C98.0649 133.931 97.6887 133.892 97.3352 133.986L77.0395 139.388C76.934 139.417 76.8318 139.456 76.7348 139.506L58.2925 149.133C58.1054 149.23 57.9065 149.302 57.7007 149.349L38.7398 153.573C38.6686 153.589 38.5986 153.61 38.5305 153.636Z" fill="#E6E6E6"/>
<path id="Vector_19" d="M53.7324 152.483L70.8915 197.058L68.1953 197.434L51.1156 153.067L53.7324 152.483Z" fill="white"/>
<path id="Vector_20" d="M58.6676 170.475C59.3512 170.475 59.9053 169.922 59.9053 169.24C59.9053 168.557 59.3512 168.004 58.6676 168.004C57.984 168.004 57.4298 168.557 57.4298 169.24C57.4298 169.922 57.984 170.475 58.6676 170.475Z" fill="#3F3D56"/>
<path id="Vector_21" d="M102.554 171.792C103.238 171.792 103.792 171.239 103.792 170.557C103.792 169.874 103.238 169.321 102.554 169.321C101.871 169.321 101.316 169.874 101.316 170.557C101.316 171.239 101.871 171.792 102.554 171.792Z" fill="#FACA15"/>
<path id="Vector_22" d="M103.055 148.238C104.46 151.888 102.77 163.981 102.175 167.863C102.156 167.986 102.105 168.102 102.027 168.199C101.949 168.296 101.846 168.371 101.73 168.415C101.613 168.46 101.487 168.473 101.364 168.453C101.241 168.434 101.125 168.382 101.029 168.303C97.983 165.817 88.615 157.967 87.2102 154.317C86.8103 153.279 86.6193 152.172 86.6481 151.059C86.6768 149.947 86.9247 148.851 87.3777 147.834C87.8306 146.818 88.4798 145.9 89.288 145.134C90.0961 144.368 91.0476 143.768 92.088 143.369C93.1284 142.969 94.2374 142.779 95.3516 142.807C96.4658 142.836 97.5635 143.084 98.5819 143.536C99.6003 143.988 100.52 144.636 101.287 145.443C102.055 146.25 102.655 147.2 103.055 148.238V148.238Z" fill="#FACA15"/>
<path id="Vector_23" d="M95.1327 155.868C97.6718 155.868 99.7301 153.813 99.7301 151.278C99.7301 148.743 97.6718 146.688 95.1327 146.688C92.5936 146.688 90.5353 148.743 90.5353 151.278C90.5353 153.813 92.5936 155.868 95.1327 155.868Z" fill="white"/>
<path id="Vector_24" d="M89.2273 141.375C89.4133 140.693 89.7468 140.06 90.2043 139.521C90.6618 138.982 91.2322 138.549 91.8752 138.254C92.5182 137.959 93.2182 137.808 93.926 137.812C94.6338 137.816 95.332 137.975 95.9716 138.278L104.179 130.871L109.904 134.752L98.1664 145.049C97.586 146.088 96.644 146.879 95.5189 147.271C94.3938 147.662 93.1638 147.629 92.0619 147.176C90.96 146.723 90.0629 145.882 89.5404 144.813C89.018 143.744 88.9066 142.52 89.2273 141.375Z" fill="#FFB8B8"/>
<path id="Vector_25" d="M102.451 143.792L96.0179 135.076L110.685 125.705L100.172 110.73C99.3136 109.506 98.937 108.01 99.1149 106.526C99.2928 105.043 100.013 103.677 101.137 102.69C102.26 101.704 103.709 101.166 105.206 101.179C106.703 101.193 108.141 101.758 109.247 102.765L122.409 114.753C123.663 115.895 124.636 117.311 125.252 118.89C125.868 120.468 126.11 122.168 125.961 123.856C125.811 125.543 125.273 127.174 124.389 128.62C123.504 130.066 122.297 131.289 120.862 132.193L102.451 143.792Z" fill="#2F2E41"/>
<path id="Vector_26" d="M52.048 166.662C52.6296 166.259 53.1156 165.734 53.4719 165.123C53.8282 164.513 54.046 163.832 54.1101 163.128C54.1742 162.424 54.083 161.715 53.8428 161.05C53.6027 160.386 53.2195 159.782 52.7202 159.281L56.9729 149.085L51.3967 144.993L45.5936 159.477C44.8064 160.37 44.3747 161.52 44.3803 162.71C44.3859 163.899 44.8284 165.046 45.624 165.931C46.4196 166.817 47.513 167.38 48.697 167.515C49.881 167.65 51.0733 167.346 52.048 166.662V166.662Z" fill="#FFB8B8"/>
<path id="Vector_27" d="M54.9214 156.309L44.8639 153.97L52.3587 132.394C53.6503 128.672 55.5557 125.19 57.9963 122.094L70.2235 106.572C71.3418 105.152 72.9781 104.233 74.7741 104.015C76.5701 103.797 78.3794 104.299 79.8055 105.41C81.2317 106.522 82.1585 108.152 82.383 109.944C82.6074 111.736 82.1112 113.544 81.003 114.972L67.4352 132.454L54.9214 156.309Z" fill="#2F2E41"/>
<path id="Vector_28" d="M128.542 246.518L109.992 246.519L109.991 239.364L122.092 239.363C122.939 239.363 123.777 239.529 124.56 239.853C125.343 240.176 126.054 240.651 126.653 241.249C127.252 241.846 127.727 242.556 128.051 243.337C128.375 244.119 128.542 244.956 128.542 245.802L128.542 246.518Z" fill="#2F2E41"/>
<path id="Vector_29" d="M58.62 246.519L40.7544 241.533L42.6843 234.642L54.3381 237.895C55.9855 238.354 57.3825 239.449 58.2218 240.937C59.061 242.425 59.2737 244.185 58.8131 245.83L58.62 246.519Z" fill="#2F2E41"/>
</g>
<g id="sign">
<path id="Vector_30" d="M246.154 246.768H241.973V2.08732C241.973 1.53373 242.193 1.00281 242.585 0.611365C242.977 0.219916 243.509 0 244.063 0C244.618 0 245.15 0.219916 245.542 0.611365C245.934 1.00281 246.154 1.53373 246.154 2.08732V246.768Z" fill="#FFF5E5"/>
<path id="Vector_31" d="M275.17 32.0056H214.327C213.773 32.005 213.241 31.7849 212.849 31.3936C212.457 31.0023 212.237 30.4717 212.236 29.9183V12.292C212.237 11.7386 212.457 11.2081 212.849 10.8168C213.241 10.4254 213.773 10.2053 214.327 10.2047H275.175C275.531 10.205 275.882 10.2961 276.194 10.4695L291.928 19.2357C292.252 19.4164 292.523 19.6801 292.711 19.9996C292.899 20.3191 292.999 20.683 293 21.0538C293.001 21.4246 292.903 21.7889 292.716 22.1092C292.529 22.4296 292.26 22.6944 291.936 22.8766L276.197 31.7366C275.884 31.9127 275.53 32.0054 275.17 32.0056Z" fill="#FACA15"/>
<path id="Vector_32" d="M269.618 70.0414H208.775C208.415 70.0411 208.061 69.9485 207.748 69.7723L192.009 60.9123C191.685 60.7302 191.416 60.4653 191.229 60.1449C191.042 59.8246 190.944 59.4603 190.945 59.0895C190.946 58.7187 191.046 58.3548 191.234 58.0353C191.422 57.7158 191.693 57.4521 192.017 57.2714L207.752 48.5052C208.063 48.3318 208.414 48.2407 208.77 48.2404H269.618C270.172 48.241 270.704 48.4612 271.096 48.8525C271.488 49.2438 271.708 49.7743 271.709 50.3277V67.954C271.708 68.5074 271.488 69.038 271.096 69.4293C270.704 69.8206 270.172 70.0407 269.618 70.0414Z" fill="#FFF5E5"/>
<path id="Vector_33" d="M269.85 107.381H209.007C208.647 107.381 208.294 107.288 207.98 107.112L192.241 98.2522C191.918 98.0701 191.649 97.8052 191.462 97.4848C191.275 97.1645 191.177 96.8002 191.177 96.4294C191.178 96.0586 191.278 95.6947 191.466 95.3752C191.655 95.0557 191.925 94.792 192.249 94.6114L207.984 85.8451C208.295 85.6717 208.646 85.5806 209.003 85.5803H269.85C270.405 85.5809 270.936 85.8011 271.328 86.1924C271.72 86.5837 271.94 87.1142 271.941 87.6676V105.294C271.94 105.847 271.72 106.378 271.328 106.769C270.936 107.161 270.405 107.381 269.85 107.381Z" fill="#FFF5E5"/>
</g>
</g>
<defs>
<clipPath id="clip0">
<rect width="293" height="247" fill="white"/>
</clipPath>
</defs>
</svg>
