<svg width="30" height="30" viewBox="0 0 30 30" fill="none" xmlns="http://www.w3.org/2000/svg">
<path d="M3.375 0C1.52437 0 0 1.52437 0 3.375V22.875C0 24.7256 1.52437 26.25 3.375 26.25H22.875C24.7256 26.25 26.25 24.7256 26.25 22.875V3.375C26.25 1.52437 24.7256 0 22.875 0H3.375ZM3.375 2.25H22.875C23.5099 2.25 24 2.74013 24 3.375V22.875C24 23.5099 23.5099 24 22.875 24H3.375C2.74013 24 2.25 23.5099 2.25 22.875V3.375C2.25 2.74013 2.74013 2.25 3.375 2.25ZM27.75 3.95654V23.625C27.75 25.899 25.8997 27.75 23.625 27.75H3.95654C4.42229 29.0565 5.66025 30 7.125 30H23.625C27.1402 30 30 27.1402 30 23.625V7.125C30 5.66025 29.0565 4.42304 27.75 3.95654ZM18.353 8.23975C18.0609 8.24826 17.7835 8.37014 17.5796 8.57959L11.625 14.5342L9.42041 12.3296C9.31675 12.2216 9.19258 12.1354 9.05519 12.076C8.91779 12.0167 8.76993 11.9853 8.62026 11.9838C8.47059 11.9822 8.32213 12.0106 8.18355 12.0672C8.04498 12.1238 7.91909 12.2074 7.81325 12.3133C7.70741 12.4191 7.62376 12.545 7.56718 12.6836C7.51061 12.8221 7.48225 12.9706 7.48377 13.1203C7.48529 13.2699 7.51666 13.4178 7.57604 13.5552C7.63542 13.6926 7.72162 13.8167 7.82959 13.9204L10.8296 16.9204C11.0406 17.1313 11.3267 17.2498 11.625 17.2498C11.9233 17.2498 12.2094 17.1313 12.4204 16.9204L19.1704 10.1704C19.3327 10.0123 19.4435 9.80896 19.4883 9.58688C19.5331 9.3648 19.5098 9.13437 19.4215 8.92575C19.3332 8.71712 19.1839 8.54002 18.9933 8.41762C18.8026 8.29522 18.5795 8.23322 18.353 8.23975Z" fill="#FACA15"/>
</svg>
