<svg width="20" height="21" viewBox="0 0 20 21" fill="none" xmlns="http://www.w3.org/2000/svg">
<path d="M5.83171 0.120819C2.61587 0.120819 0 2.73911 0 5.95578V14.2891C0 17.5049 2.61829 20.1208 5.83496 20.1208H14.1683C17.3841 20.1208 20 17.5025 20 14.2859V5.95252C20 2.73669 17.3817 0.120819 14.165 0.120819H5.83171ZM15.8333 3.45415C16.2933 3.45415 16.6667 3.82749 16.6667 4.28749C16.6667 4.74749 16.2933 5.12082 15.8333 5.12082C15.3733 5.12082 15 4.74749 15 4.28749C15 3.82749 15.3733 3.45415 15.8333 3.45415ZM10 5.12082C12.7575 5.12082 15 7.36332 15 10.1208C15 12.8783 12.7575 15.1208 10 15.1208C7.2425 15.1208 5 12.8783 5 10.1208C5 7.36332 7.2425 5.12082 10 5.12082ZM10 6.78749C9.11594 6.78749 8.2681 7.13867 7.64298 7.7638C7.01786 8.38892 6.66667 9.23676 6.66667 10.1208C6.66667 11.0049 7.01786 11.8527 7.64298 12.4778C8.2681 13.103 9.11594 13.4542 10 13.4542C10.8841 13.4542 11.7319 13.103 12.357 12.4778C12.9821 11.8527 13.3333 11.0049 13.3333 10.1208C13.3333 9.23676 12.9821 8.38892 12.357 7.7638C11.7319 7.13867 10.8841 6.78749 10 6.78749Z" fill="#333333"/>
</svg>
